# AST/ASF file generated using VICON BodyLanguage
# -----------------------------------------------
:version 1.10
:name VICON
:units
  mass 1.0
  length 0.45
  angle deg
:documentation
   .ast/.asf automatically generated from VICON data using
   VICON BodyBuilder and BodyLanguage model FoxedUp or BRILLIANT.MOD
:root
   order TX TY TZ RX RY RZ
   axis XYZ
   position 0 0 0  
   orientation 0 0 0 
:bonedata
  begin
     id 1 
     name lhipjoint
     direction 0.611804 -0.747784 0.257906 
     length 2.29243 
     axis 0 0 0  XYZ
  end
  begin
     id 2 
     name lfemur
     direction 0.34202 -0.939693 0  
     length 7.31159  
     axis 0 0 20  XYZ
    dof rx ry rz
    limits (-160.0 20.0)
           (-70.0 70.0)
           (-60.0 70.0)
  end
  begin
     id 3 
     name ltibia
     direction 0.34202 -0.939693 0   
     length 7.33391   
     axis 0 0 20   XYZ
    dof rx
    limits (-10.0 170.0)
  end
  begin
     id 4 
     name lfoot
     direction 0.122263 -0.335914 0.933924   
     length 1.76083   
     axis -90 7.62852e-016 20   XYZ
    dof rx rz
    limits (-45.0 90.0)
           (-70.0 20.0)
  end
  begin
     id 5 
     name ltoes
     direction 1.53533e-011 -4.2177e-011 1   
     length 0.879206   
     axis -90 7.62852e-016 20   XYZ
    dof rx
    limits (-90.0 20.0)
  end
  begin
     id 6 
     name rhipjoint
     direction -0.646469 -0.721248 0.248754   
     length 2.37677  
     axis 0 0 0  XYZ 
  end
  begin
     id 7 
     name rfemur
     direction -0.34202 -0.939693 0   
     length 7.18623   
     axis 0 0 -20   XYZ
    dof rx ry rz
    limits (-160.0 20.0)
           (-70.0 70.0)
           (-70.0 60.0)
  end
  begin
     id 8 
     name rtibia
     direction -0.34202 -0.939693 0   
     length 7.36567   
     axis 0 0 -20   XYZ
    dof rx
    limits (-10.0 170.0)
 end
 begin
     id 9 
     name rfoot
     direction -0.126681 -0.348054 0.928876   
     length 1.71902  
     axis -90 -7.62852e-016 -20   XYZ
    dof rx rz
    limits (-45.0 90.0)
           (-20.0 70.0)
  end
  begin
     id 10 
     name rtoes
     direction -1.53551e-011 -4.21898e-011 1   
     length 0.857792   
     axis -90 -7.62852e-016 -20   XYZ
    dof rx
    limits (-90.0 20.0)
  end
  begin
     id 11 
     name lowerback
     direction 0.0106509 0.999778 0.0181844   
     length 2.07668   
     axis 0 0 0   XYZ
    dof rx ry rz
    limits (-20.0 45.0)
           (-30.0 30.0)
           (-30.0 30.0)
  end
  begin
     id 12 
     name upperback
     direction -0.00456018 0.999989 -0.000590935   
     length 2.08011   
     axis 0 0 0   XYZ
    dof rx ry rz
    limits (-20.0 45.0)
           (-30.0 30.0)
           (-30.0 30.0)
  end
  begin
     id 13 
     name thorax
     direction -0.00910382 0.999916 -0.00923765   
     length 2.07397   
     axis 0 0 0   XYZ
    dof rx ry rz
    limits (-20.0 45.0)
           (-30.0 30.0)
           (-30.0 30.0)
  end
  begin
     id 14 
     name lowerneck
     direction 0.00171967 0.99778 0.0665733   
     length 1.67556   
     axis 0 0 0   XYZ
    dof rx ry rz
    limits (-20.0 45.0)
           (-30.0 30.0)
           (-30.0 30.0)
  end
  begin
     id 15 
     name upperneck
     direction -0.0143166 0.991302 -0.130828   
     length 1.68462   
     axis 0 0 0   XYZ
    dof rx ry rz
    limits (-20.0 45.0)
           (-30.0 30.0)
           (-30.0 30.0)
  end
  begin
     id 16
     name head
     direction -0.00606378 0.998665 -0.0512995  
     length 1.69269  
     axis 0 0 0   XYZ
    dof rx ry rz
    limits (-20.0 45.0)
           (-30.0 30.0)
           (-30.0 30.0)
  end
  begin
     id 17 
     name lclavicle
     direction 0.9638 0.179341 0.197297  
     length 4.12888  
     axis 0 0 0   XYZ
    dof ry rz
    limits (-20.0 10.0)
           (0.0 20.0)
  end
  begin
     id 18 
     name lhumerus
     direction 1 -4.48972e-011 -2.47351e-027   
     length 5.01834   
     axis -180 -30 -90   XYZ
    dof rx ry rz
    limits (-60.0 90.0)
           (-90.0 90.0)
           (-90.0 90.0)
  end
  begin
     id 19
     name lradius
     direction 1 -4.48965e-011 1.51591e-026   
     length 3.4869   
     axis -180 -30 -90   XYZ
    dof rx
    limits (-10.0 170.0)
  end
  begin
     id 20
     name lwrist
     direction 1 -4.48957e-011 2.70032e-026   
     length 1.74345   
     axis -1.81515e-014 90 90   XYZ
    dof ry
    limits (-180.0 0.0)
 end
  begin
     id 21 
     name lhand
     direction 1 -4.48951e-011 5.40064e-026   
     length 0.76799   
     axis -3.44607e-014 90 90   XYZ
    dof rx rz
    limits (-90.0 90.0)
           (-45.0 45.0)
  end
  begin
     id 22 
     name lfingers
     direction 1 -4.48971e-011 1.08013e-025   
     length 0.619174   
     axis -6.89214e-014 90 90   XYZ
    dof rx
    limits (0.0 90.0)
  end
  begin
     id 23
     name lthumb
     direction 0.707107 -6.34931e-011 0.707107   
     length 0.889013   
     axis -90 45 2.85299e-015   XYZ
    dof rx rz
    limits (-45.0 45.0)
           (-45.0 45.0)
  end
  begin
     id 24 
     name rclavicle
     direction -0.961409 0.252588 0.109054   
     length 4.04305  
     axis 0 0 0   XYZ 
    dof ry rz
    limits (-10.0 20.0)
           (-20.0 0.0)
  end
  begin
     id 25 
     name rhumerus
     direction -1 -4.4897e-011 1.33872e-017  
     length 4.70164   
     axis -180 30 90   XYZ
    dof rx ry rz
    limits (-90.0 60.0)
           (-90.0 90.0)
           (-90.0 90.0)
  end
  begin
     id 26 
     name rradius
     direction -1 -4.48954e-011 1.83844e-026   
     length 3.49911   
     axis -180 30 90   XYZ
    dof rx
    limits (-10.0 170.0)
  end
  begin
     id 27 
     name rwrist
     direction -1 -4.49008e-011 2.70032e-026   
     length 1.74955   
     axis -1.81515e-014 -90 -90   XYZ
    dof ry
    limits (-180.0 0.0)
  end
  begin
     id 28
     name rhand
     direction -1 -4.48916e-011 5.40064e-026   
     length 0.739335   
     axis -3.44607e-014 -90 -90   XYZ
    dof rx rz
    limits (-90.0 90.0)
           (-45.0 45.0)
  end
  begin
     id 29
     name rfingers
     direction -1 -4.48987e-011 1.08013e-025   
     length 0.596071   
     axis -6.89214e-014 -90 -90   XYZ
    dof rx
    limits (0.0 90.0)
  end
  begin
     id 30
     name rthumb
     direction -0.707107 -6.34935e-011 0.707107   
     length 0.855843   
     axis -90 -45 -2.85299e-015   XYZ
    dof rx rz
    limits (-45.0 45.0)
           (-45.0 45.0)
  end
:hierarchy
  begin
    root lhipjoint rhipjoint lowerback
    lhipjoint lfemur
    lfemur ltibia
    ltibia lfoot
    lfoot ltoes
    rhipjoint rfemur
    rfemur rtibia
    rtibia rfoot
    rfoot rtoes
    lowerback upperback
    upperback thorax
    thorax lowerneck lclavicle rclavicle
    lowerneck upperneck
    upperneck head
    lclavicle lhumerus
    lhumerus lradius
    lradius lwrist
    lwrist lhand lthumb
    lhand lfingers
    rclavicle rhumerus
    rhumerus rradius
    rradius rwrist
    rwrist rhand rthumb
    rhand rfingers
  end

#!OML:ASF I:\salsa\salsa 7_09\Patient 1\Session 1\dancermale.ASF
:FULLY-SPECIFIED
:DEGREES
242
root -16.1784 17.0755 0.0886575 177.899 81.3982 172.204
lowerback -6.66125 -0.330011 0.909763
upperback 2.05209 -0.440527 -1.33394
thorax 5.86036 -0.155133 -1.95245
lowerneck -7.93112 -4.10742 -0.469037
upperneck 8.03514 -5.50444 0.669095
head 4.08707 -2.69388 -0.0254763
rclavicle 2.1593e-014 3.97569e-016
rhumerus -50.1751 19.1687 -113.736
rradius 90.8584
rwrist 0.271422
rhand -19.8684 5.74538
rfingers 7.12502
rthumb 6.46687 -24.1359
lclavicle 2.1593e-014 3.97569e-016
lhumerus -36.3067 -36.6743 114.69
lradius 107.465
lwrist 29.8497
lhand -20.5922 52.685
lfingers 7.12502
lthumb 5.76808 82.5865
rfemur -24.7579 -17.8129 14.0128
rtibia 55.0157
rfoot -20.1633 -11.0043
rtoes -1.2905
lfemur -12.4847 -1.78712 -19.5751
ltibia 32.7098
lfoot -28.8054 5.7427
ltoes -13.2751
243
root -16.1318 17.0663 0.131483 177.236 81.1578 171.402
lowerback -6.49215 -0.41157 1.11018
upperback 2.03259 -0.554017 -1.53432
thorax 5.73553 -0.200763 -2.28503
lowerneck -8.0945 -4.04593 -0.231696
upperneck 8.13356 -5.41139 0.257724
head 4.13271 -2.65952 -0.203238
rclavicle 2.19906e-014 8.34896e-015
rhumerus -51.5495 18.659 -113.266
rradius 91.7356
rwrist 0.773366
rhand -19.7666 5.94317
rfingers 7.12502
rthumb 6.56511 -23.9351
lclavicle 2.19906e-014 8.34896e-015
lhumerus -36.5128 -37.8297 115.773
lradius 107.271
lwrist 30.227
lhand -20.3343 52.223
lfingers 7.12502
lthumb 6.01705 82.1176
rfemur -25.374 -17.4758 12.4929
rtibia 54.9654
rfoot -19.7607 -12.1917
rtoes 3.28518
lfemur -12.6124 -1.87371 -19.5697
ltibia 32.9497
lfoot -28.9943 5.80648
ltoes -13.4471
244
root -16.0843 17.0618 0.178767 176.558 81.2008 170.439
lowerback -6.52914 -0.383378 1.30201
upperback 1.98655 -0.525387 -1.67074
thorax 5.70729 -0.177537 -2.53245
lowerneck -8.17512 -3.97879 -0.480152
upperneck 8.17922 -5.289 0.233732
head 4.17232 -2.60788 -0.163102
rclavicle -2.76808e-014 1.03368e-014
rhumerus -52.9043 18.5943 -112.607
rradius 92.8021
rwrist 0.86003
rhand -19.749 6.01315
rfingers 7.12502
rthumb 6.5821 -23.8646
lclavicle -2.76808e-014 1.03368e-014
lhumerus -36.7309 -39.0604 116.752
lradius 107.026
lwrist 30.477
lhand -19.9397 52.1601
lfingers 7.12502
lthumb 6.39801 82.0434
rfemur -26.0271 -16.6472 10.8994
rtibia 54.4158
rfoot -19.345 -13.3477
rtoes 6.64122
lfemur -12.7763 -1.80217 -19.5379
ltibia 32.9878
lfoot -29.0068 6.08595
ltoes -14.3436
245
root -16.0311 17.064 0.232665 176.056 81.3348 169.616
lowerback -6.73934 -0.37791 1.43731
upperback 1.992 -0.527468 -1.73717
thorax 5.83155 -0.170648 -2.68172
lowerneck -8.08455 -3.84437 -0.373777
upperneck 7.96353 -5.07708 -0.225145
head 4.05848 -2.52415 -0.315167
rclavicle -2.62147e-014 -1.39149e-015
rhumerus -54.1806 18.8234 -111.848
rradius 93.9769
rwrist 0.745434
rhand -19.6569 6.09642
rfingers 7.12502
rthumb 6.67103 -23.7785
lclavicle -2.62147e-014 -1.39149e-015
lhumerus -36.9127 -40.1291 117.48
lradius 106.666
lwrist 30.522
lhand -19.1946 52.1048
lfingers 7.12502
lthumb 7.11732 81.9652
rfemur -26.4731 -15.4774 9.20003
rtibia 53.2438
rfoot -18.9531 -13.9644
rtoes 10.1699
lfemur -12.8488 -1.72152 -19.4508
ltibia 32.8094
lfoot -28.8784 6.61173
ltoes -16.1596
246
root -15.9703 17.0712 0.298918 175.832 81.4508 169.079
lowerback -6.87597 -0.371058 1.58314
upperback 1.90987 -0.526816 -1.84116
thorax 5.82146 -0.163794 -2.87388
lowerneck -7.90833 -3.67781 -0.103141
upperneck 7.81492 -4.83797 -0.731547
head 3.94802 -2.42264 -0.508719
rclavicle 8.22472e-015 -1.5704e-014
rhumerus -55.3777 18.888 -111.111
rradius 95.1507
rwrist 0.626146
rhand -19.4623 6.15678
rfingers 7.12502
rthumb 6.8589 -23.7121
lclavicle 8.22472e-015 -1.5704e-014
lhumerus -37.4348 -41.1355 118.108
lradius 106.277
lwrist 30.5208
lhand -18.2828 51.7308
lfingers 7.12502
lthumb 7.99736 81.5595
rfemur -26.6162 -14.1203 7.48056
rtibia 51.4615
rfoot -18.2114 -14.4861
rtoes 10.7414
lfemur -12.8164 -1.81421 -19.2823
ltibia 32.4878
lfoot -28.7275 7.16702
ltoes -17.4478
247
root -15.9025 17.0833 0.378385 176.075 81.5481 168.966
lowerback -6.99931 -0.340186 1.77943
upperback 1.74326 -0.497846 -1.97097
thorax 5.71628 -0.143183 -3.11711
lowerneck -7.8196 -3.57908 0.156642
upperneck 7.82474 -4.70425 -1.06356
head 3.91856 -2.36398 -0.653984
rclavicle -1.20762e-014 2.48481e-014
rhumerus -56.5033 18.7635 -110.345
rradius 96.4164
rwrist 0.505835
rhand -19.1503 6.15101
rfingers 7.12502
rthumb 7.16009 -23.7079
lclavicle -1.20762e-014 2.48481e-014
lhumerus -38.3096 -42.1318 118.642
lradius 106.106
lwrist 30.5994
lhand -17.6592 51.3879
lfingers 7.12502
lthumb 8.59921 81.1928
rfemur -26.5268 -12.5192 5.78496
rtibia 49.077
rfoot -16.6465 -14.3627
rtoes 12.7449
lfemur -12.7761 -1.99807 -18.9793
ltibia 32.0747
lfoot -28.5548 7.55885
ltoes -17.7163
248
root -15.8282 17.0994 0.471958 176.776 81.7067 169.28
lowerback -7.19247 -0.345724 1.88561
upperback 1.5737 -0.516171 -2.00555
thorax 5.64586 -0.151028 -3.21627
lowerneck -7.89172 -3.46406 0.178762
upperneck 8.00611 -4.53286 -1.24821
head 3.99369 -2.28642 -0.714388
rclavicle 3.8266e-015 -3.18055e-015
rhumerus -57.6092 18.8453 -109.467
rradius 97.8255
rwrist 0.286595
rhand -18.8271 6.35838
rfingers 7.12502
rthumb 7.472 -23.4897
lclavicle 3.8266e-015 -3.18055e-015
lhumerus -39.1294 -42.8362 118.924
lradius 105.936
lwrist 30.5225
lhand -16.9277 51.0926
lfingers 7.12502
lthumb 9.30515 80.8673
rfemur -26.2771 -10.5901 4.20659
rtibia 46.3353
rfoot -14.3573 -13.7086
rtoes 15.9712
lfemur -12.7425 -2.20596 -18.5298
ltibia 31.6468
lfoot -28.3743 7.78545
ltoes -17.3751
249
root -15.7489 17.1172 0.58232 177.565 81.8507 169.812
lowerback -7.2738 -0.407424 1.81436
upperback 1.45299 -0.595615 -1.96993
thorax 5.56056 -0.196124 -3.14758
lowerneck -7.93302 -3.30957 0.175144
upperneck 8.11083 -4.30729 -1.41582
head 4.03757 -2.18258 -0.759293
rclavicle 1.54058e-014 6.36111e-015
rhumerus -58.57 19.085 -108.505
rradius 99.3029
rwrist -0.0289216
rhand -18.517 6.75534
rfingers 7.12502
rthumb 7.77139 -23.0818
lclavicle 1.54058e-014 6.36111e-015
lhumerus -39.8807 -43.1797 118.982
lradius 105.656
lwrist 30.2149
lhand -16.1114 50.9447
lfingers 7.12502
lthumb 10.0927 80.6826
rfemur -25.6827 -8.33203 2.68156
rtibia 43.3616
rfoot -11.7623 -12.5521
rtoes 19.0196
lfemur -12.5396 -2.55552 -18.0071
ltibia 31.198
lfoot -28.2027 7.98104
ltoes -16.9071
250
root -15.6651 17.1352 0.704745 178.953 82.0138 171.016
lowerback -7.25556 -0.478927 1.72433
upperback 1.29839 -0.689085 -1.87696
thorax 5.38328 -0.251559 -3.00762
lowerneck -7.91902 -3.14069 0.0973102
upperneck 8.21065 -4.06012 -1.51042
head 4.07269 -2.06689 -0.764095
rclavicle 1.63997e-015 -1.59028e-014
rhumerus -59.4136 19.3366 -107.485
rradius 100.706
rwrist 0.00940178
rhand -18.4073 7.37624
rfingers 7.12502
rthumb 7.87722 -22.457
lclavicle 1.63997e-015 -1.59028e-014
lhumerus -40.8584 -43.1627 119.039
lradius 105.43
lwrist 29.7288
lhand -15.488 51.0369
lfingers 7.12502
lthumb 10.6941 80.7447
rfemur -24.9335 -5.8426 1.38938
rtibia 40.4435
rfoot -8.90639 -11.1252
rtoes 20.2198
lfemur -12.2373 -2.95624 -17.3596
ltibia 30.7408
lfoot -28.0007 8.53541
ltoes -17.2873
251
root -15.5744 17.1555 0.834404 181.507 82.3777 173.452
lowerback -7.18707 -0.501557 1.72525
upperback 1.11708 -0.730868 -1.69049
thorax 5.1537 -0.28124 -2.81413
lowerneck -7.97896 -2.98031 -0.0200295
upperneck 8.4937 -3.82619 -1.50602
head 4.19131 -1.95407 -0.734448
rclavicle 2.98177e-015 -2.34566e-014
rhumerus -60.0346 19.6974 -106.372
rradius 102.042
rwrist 0.412584
rhand -18.555 7.9566
rfingers 7.12502
rthumb 7.73469 -21.8819
lclavicle 2.98177e-015 -2.34566e-014
lhumerus -41.93 -42.885 119.018
lradius 105.232
lwrist 29.1342
lhand -15.1024 50.9444
lfingers 7.12502
lthumb 11.066 80.6326
rfemur -24.1523 -2.87545 0.446695
rtibia 37.6301
rfoot -7.30939 -9.33871
rtoes 13.4394
lfemur -11.8148 -3.18683 -16.4997
ltibia 30.3016
lfoot -27.8183 9.36681
ltoes -18.0651
252
root -15.474 17.1702 0.973068 183.482 82.6774 175.528
lowerback -7.18277 -0.562548 1.52874
upperback 1.13709 -0.806988 -1.4772
thorax 5.17265 -0.328278 -2.48945
lowerneck -8.05986 -2.84561 -0.00435322
upperneck 8.60519 -3.62158 -1.73233
head 4.24508 -1.86349 -0.804375
rclavicle 1.04362e-015 -7.15625e-015
rhumerus -60.2113 20.265 -105.232
rradius 103.287
rwrist 0.591803
rhand -19.1464 8.2318
rfingers 7.12502
rthumb 7.16387 -21.627
lclavicle 1.04362e-015 -7.15625e-015
lhumerus -42.822 -42.1132 118.715
lradius 105.02
lwrist 28.1677
lhand -14.5911 50.839
lfingers 7.12502
lthumb 11.5591 80.5002
rfemur -23.1297 -0.37941 -0.185537
rtibia 35.6924
rfoot -7.60458 -7.50762
rtoes -5.51354
lfemur -11.0715 -3.50117 -15.7324
ltibia 29.7845
lfoot -27.5969 10.1587
ltoes -18.4366
253
root -15.3628 17.176 1.12691 185.599 82.4891 177.725
lowerback -7.50528 -0.759935 1.19264
upperback 1.28016 -1.05585 -1.2329
thorax 5.50206 -0.460845 -2.08262
lowerneck -8.04039 -2.7335 -0.0370949
upperneck 8.43232 -3.44708 -1.95576
head 4.17755 -1.78943 -0.859417
rclavicle -1.70458e-014 -2.78299e-014
rhumerus -59.8431 20.7973 -103.97
rradius 104.349
rwrist 0.619003
rhand -19.8013 8.6123
rfingers 7.12502
rthumb 6.5316 -21.267
lclavicle -1.70458e-014 -2.78299e-014
lhumerus -43.606 -40.9438 118.149
lradius 104.813
lwrist 26.9408
lhand -13.8515 51.0908
lfingers 7.12502
lthumb 12.2723 80.7107
rfemur -21.9121 1.16602 -0.359949
rtibia 34.6367
rfoot -8.33666 -5.72446
rtoes -27.0867
lfemur -10.4393 -4.20988 -14.9148
ltibia 29.341
lfoot -27.3023 10.8711
ltoes -17.9859
254
root -15.2377 17.1796 1.29075 187.964 81.9183 180.245
lowerback -7.7322 -1.02968 1.03455
upperback 1.34657 -1.40899 -1.1132
thorax 5.69165 -0.639823 -1.91808
lowerneck -8.15218 -2.61857 -0.442197
upperneck 8.64756 -3.30446 -1.31869
head 4.29822 -1.70166 -0.571197
rclavicle -7.20594e-015 -1.07344e-014
rhumerus -59.3599 21.0083 -102.969
rradius 105.268
rwrist 0.762038
rhand -20.2708 8.95226
rfingers 7.12502
rthumb 6.07841 -20.9405
lclavicle -7.20594e-015 -1.07344e-014
lhumerus -44.6079 -39.7911 117.425
lradius 104.6
lwrist 25.9638
lhand -13.6538 51.7817
lfingers 7.12502
lthumb 12.4629 81.3901
rfemur -20.3037 2.05589 0.00408057
rtibia 33.3299
rfoot -9.47222 -4.44127
rtoes -38.3676
lfemur -9.85783 -5.19345 -13.9907
ltibia 29.1401
lfoot -27.1388 11.4836
ltoes -15.9442
255
root -15.1091 17.182 1.46342 190.725 81.2539 183.227
lowerback -7.7247 -1.28571 1.14386
upperback 1.30827 -1.75962 -1.14008
thorax 5.62921 -0.809677 -2.04968
lowerneck -8.13487 -2.49345 -0.489675
upperneck 8.81514 -3.17893 -0.837758
head 4.36559 -1.61704 -0.395366
rclavicle -1.54058e-014 2.78299e-015
rhumerus -58.9122 20.8994 -102.425
rradius 106.194
rwrist 0.67084
rhand -20.9146 9.2372
rfingers 7.12502
rthumb 5.45683 -20.6725
lclavicle -1.54058e-014 2.78299e-015
lhumerus -45.9105 -38.7184 116.567
lradius 104.392
lwrist 25.3965
lhand -14.5114 52.0669
lfingers 7.12502
lthumb 11.636 81.7238
rfemur -18.3159 2.4481 0.915678
rtibia 31.3822
rfoot -10.8475 -3.97194
rtoes -44.761
lfemur -9.35703 -6.20752 -12.9232
ltibia 29.2096
lfoot -26.9325 12.1853
ltoes -13.8554
